<svg width="376" height="194" viewBox="0 0 376 194" fill="none" xmlns="http://www.w3.org/2000/svg">
<path d="M369.27 127.81C364 152.201 347.443 170.001 327.176 178.985C318.007 185.792 288.588 199.749 252.328 182.176C239.364 175.893 227.807 174.927 216.76 176.012C193.025 178.341 179.906 201.769 143.703 178.985C107.5 156.201 97.2587 139.679 65.1445 139.679C33.0302 139.679 9 112.496 9 112.496C33 117.701 48.2556 120.817 67.4474 112.496C98.7684 98.9178 77.5 88.7538 111.5 56.7538C131 14.7406 143.703 8.49997 155 8.49996C166.297 8.49996 161.5 22.4183 181 14.7406C200.5 7.06297 226.765 3.30604 249.386 14.7406C272.006 26.1753 285.5 37.9595 296 48.9595C306.5 59.9595 301.64 53.4388 313 65C320 69.4595 326.1 73.6 332.5 76C340.5 79 344.705 77.581 340 67.0405C335.295 56.5 332.5 51 316.5 35C300.5 19 327.319 25.5125 348 43.5C364.545 57.8906 375.621 94.5476 371.017 117.042C370.716 120.192 370.145 123.761 369.27 127.81Z" fill="#FB4D61"/>
<path d="M327.176 86.464C324.97 84.6884 323.037 82.3384 321.5 79.2014C319.094 74.2915 316.18 68.2367 313 65M327.176 86.464C344.85 100.691 380.025 78.0381 369.27 127.81C364 152.201 347.443 170.001 327.176 178.985C318.007 185.792 288.588 199.749 252.328 182.176C239.364 175.893 227.807 174.927 216.76 176.012C193.025 178.341 179.906 201.769 143.703 178.985C107.5 156.201 97.2587 139.679 65.1445 139.679C33.0302 139.679 9 112.496 9 112.496C33 117.701 48.2556 120.817 67.4474 112.496C98.7684 98.9178 77.5 88.7538 111.5 56.7538C131 14.7406 143.703 8.49997 155 8.49996C166.297 8.49996 161.5 22.4183 181 14.7406C200.5 7.06297 226.765 3.30604 249.386 14.7406C272.006 26.1753 285.5 37.9595 296 48.9595C306.5 59.9595 301.64 53.4388 313 65M327.176 86.464C331.951 88.9436 348.2 143.761 363 132C381.5 117.299 369.27 62 348 43.5C327.319 25.5125 300.5 19 316.5 35C332.5 51 335.295 56.5 340 67.0405C344.705 77.581 340.5 79 332.5 76C326.1 73.6 320 69.4595 313 65" stroke="#FB4D61" stroke-width="6"/>
<path d="M205.809 83.0977C205.356 85.5636 180.612 106.801 192.552 128.121C202.105 145.176 216.11 142.056 221.647 138.269C225.69 135.643 235.315 123.057 227.404 111.821C222.515 104.877 214.343 103.88 208.523 108.061" stroke="white" stroke-width="6"/>
<path d="M217.293 2.45534C207.963 9.50386 188.34 26.7882 184.484 39.5372C180.628 52.2863 186.723 68.2457 197.003 75.8712C207.284 83.4967 232.527 89.6183 245.652 68.9915C254.794 54.624 250.317 39.3175 241.729 31.871C227.605 19.6246 211.628 30.3598 207.715 36.2914C203.801 42.2231 201.014 55.1355 209.702 62.4273" stroke="white" stroke-width="6"/>
<path d="M208.562 185.847C202.633 187.719 188.909 190.901 181.437 188.655C173.965 186.409 145.925 177.169 151.626 157.899C156.232 142.33 147.276 131.482 139.727 126.505C132.178 121.528 121.457 124.259 119 132.12" stroke="white" stroke-width="6"/>
<path d="M322.553 102.264C323.748 96.7878 323.145 83.7113 311.176 75.2177C299.207 66.7241 291.373 71.2522 288.952 74.578C286.961 77.4169 284.412 84.4046 290.138 89.6437C297.295 96.1926 306.212 87.4156 301.178 81.8012" stroke="white" stroke-width="6"/>
<path d="M371.219 143.345C366.759 147.959 355.861 157.573 347.949 159.119C340.036 160.664 309.939 165.712 305.536 145.076C301.979 128.404 288.437 122.695 279.096 121.745C269.754 120.796 261.363 128.534 263.04 137.016" stroke="white" stroke-width="6"/>
</svg>
