<svg width="367" height="139" viewBox="0 0 367 139" fill="none" xmlns="http://www.w3.org/2000/svg">
<path d="M20 113.905C16.6013 109.657 11.6667 101.572 9 98.9053C11 99.4053 16.5 103.411 28.5 103.905C36.5 104.234 40 102.405 43.5 97.9053C45.2365 95.6727 53.5 83.9053 59 80.9053C64.5 77.9053 72 78.9053 72 78.9053C72 78.9053 81.7091 80.4297 83 79.9053C99 73.4053 89.5 65.6053 95.5 60.4053C101.5 55.2053 111 56.4507 117 55.9053C122.5 55.4053 119.5 50.4053 119 41.4053C118.029 23.9322 132 14.9053 134 13.4053C136 11.9053 143.263 6.95606 157.5 3.90529C168.5 1.54817 182 4.30002 187 6.40528C193.333 9.07195 206.7 16.4053 209.5 24.4053C212.3 32.4053 214.5 44.4053 215.5 46.9053L217.5 35.9053C218.333 32.072 224.175 22.4053 237 22.4053C261.5 22.4053 262.5 43.4053 260 50.9053C257.5 58.4053 242.2 64.8053 253 60.4053C266.5 54.9053 272.747 59.7468 273.5 60.4053C277.5 63.9053 283 75.9053 289.5 81.4053C291.027 82.6972 302.5 86.9053 307 83.4053C337 60.072 349 65.4053 361.5 72.4053C374 79.4053 343.5 68.4053 333.5 75.9053C323.5 83.4053 320.5 90.4053 317.5 98.9053C315.442 104.737 309.5 109.405 305 110.405C300.794 111.34 289.5 107.405 287 111.905L281.5 121.405C276.5 128.405 267.9 131.405 257.5 131.405C247.1 131.405 241.667 120.739 239.5 115.405C238 112.405 237.2 106.605 234 115.405C230.8 124.205 221.667 130.739 217.5 132.905C211.333 135.405 196.3 138.405 185.5 130.405C172 120.405 162 123.905 158.5 124.905C155 125.905 137 133.405 120 135.405C103 137.405 87.8333 129.239 83 123.905C86.5 124.905 98.5 126.405 101.5 126.905C104.376 127.385 117.308 126.634 122 124.905C131.5 121.405 146.5 103.905 127 113.905C107.5 123.905 96.5 119.905 90.5 115.405C84.5 110.905 72 107.405 65 105.905C58 104.405 53.5 109.405 48 113.905C45.6423 115.834 40.8781 119.208 36 119.905C29 120.905 24 118.905 20 113.905Z" fill="#FB4D61" stroke="#FB4D61" stroke-width="5"/>
<path d="M112.679 44.898C119.02 59.1102 140.908 85.5104 172.469 65.5893C201.276 47.406 181.378 11.1833 163.228 14.1744C159.423 14.8015 148.118 20.1938 152.901 34.2388M73 75.6215C73.0001 105.718 100.177 110.308 109.417 100.075C125.723 82.0168 95.2851 66.8433 93.1111 81.2646" stroke="white" stroke-width="5"/>
<path d="M166.95 128C156.348 109.501 147.756 66.876 186.691 63.2543C205.334 61.5201 213.821 68.9009 216.675 77.9284C220.513 90.0682 216.127 107.411 202.044 109.501C196.195 109.501 184.936 106.611 186.691 95.0491C188.445 83.4873 197.292 83.68 201.496 85.2216C206.431 88.112 204.567 94.9335 197.109 94.471" stroke="white" stroke-width="5"/>
<path d="M226.5 97.9053C227.833 103.072 233.3 112.905 244.5 110.905C255.7 108.905 264.167 102.739 267 99.9053" stroke="white" stroke-width="5"/>
<path d="M290.539 115.32C288.872 112.154 286.039 103.92 290.039 100.32C295.039 95.8203 301.039 98.8204 303.039 101.32C304.239 102.82 306.039 106.32 303.039 109.82" stroke="white" stroke-width="5"/>
</svg>
