<svg width="300" height="64" viewBox="0 0 300 64" fill="none" xmlns="http://www.w3.org/2000/svg">
<path d="M50 34C29.1064 45.2826 13.5 39.5 4.5 37C12.5 46 30 45.8889 43 43C52 41 64.4733 32.237 75 27.5C85 23 107.189 17.7262 131 22C150.5 25.5 157 29 167 33C176.469 36.7875 189.126 33.3738 195.5 27C199 23.5 200.5 16.5 196 10C191.5 3.50001 187.185 2.00001 181 2C175 1.99999 166.75 4.5 167.5 13.5C168 19.5 173 21 175.5 22C174.5 20.5 171.84 16.7943 175.5 13.5C180.5 9.00001 187 10.5 190 16.5C193.688 23.8756 184.5 33 172.5 31C160.653 29.0255 162.213 26.6063 148 19.5C135 13 120 12.5 104 14C94.3333 15.3333 75 20.5 50 34Z" fill="#FB4D61" stroke="#FB4D61" stroke-width="3"/>
<path d="M41.5 57.5C27.9 58.7 14.5 54.3334 9.5 52C18.1667 51.3334 36.7 49.7 41.5 48.5C60.5 43.75 72.5 34.5 91.5 29.5C110.5 24.5 129 29 144 32C159 35 166.5 40 179 44C191.5 48 195.5 43 202 39C213.094 32.1727 229.5 23 226.5 25.5L226.281 25.6825C219.693 31.1719 218.851 31.8731 220.5 35.5C222.5 38.5 226 40 231 36C236.625 31.5 243.033 24.7459 249 24C257 23 270.5 26.5 277 36C283.25 45.1345 305 34 295 40C285 46 279 44 270 40C261 36 254.5 36 244.5 40C232.894 44.6424 223.5 62.5 198.5 62.5C173.5 62.5 176 48 146.5 40C122.9 33.6 110.5 38.1715 93.5 44C81.8333 48 55.1 56.3 41.5 57.5Z" fill="#FB4D61" stroke="#FB4D61" stroke-width="3"/>
</svg>
