<svg width="375" height="196" viewBox="0 0 375 196" fill="none" xmlns="http://www.w3.org/2000/svg">
<path d="M369.27 128.109C381.367 72.125 338.691 53.4525 309.904 51.7935C299.261 51.1801 288.887 53.3232 279.709 57.0526C279.026 47.8126 272.006 26.474 249.386 15.0394C226.765 3.60476 194.241 6.10609 179.655 11.8489C165.07 17.5917 144.087 29.741 131.292 49.7516C124.255 60.0036 98.7684 99.2164 67.4474 112.795C48.2556 121.115 33 118 9 112.795C9 112.795 33.0302 139.978 65.1445 139.978C97.2587 139.978 102.76 162.949 143.703 179.284C171.641 190.431 193.025 178.64 216.76 176.311C227.807 175.226 239.364 176.192 252.328 182.475C288.588 200.048 318.007 186.09 327.176 179.284C347.443 170.3 364 152.5 369.27 128.109Z" fill="#FB4D61"/>
<path d="M246.443 88.8028C248.03 78.0597 261.522 64.4421 279.709 57.0526M279.709 57.0526C288.887 53.3232 299.261 51.1801 309.904 51.7935C338.691 53.4525 381.367 72.125 369.27 128.109C364 152.5 347.443 170.3 327.176 179.284C318.007 186.09 288.588 200.048 252.328 182.475C239.364 176.192 227.807 175.226 216.76 176.311C193.025 178.64 171.641 190.431 143.703 179.284C102.76 162.949 97.2587 139.978 65.1445 139.978C33.0302 139.978 9 112.795 9 112.795C33 118 48.2556 121.115 67.4474 112.795C98.7684 99.2164 124.255 60.0036 131.292 49.7516C144.087 29.741 165.07 17.5917 179.655 11.8489C194.241 6.10609 226.765 3.60476 249.386 15.0394C272.006 26.474 279.026 47.8126 279.709 57.0526Z" stroke="#FB4D61" stroke-width="6"/>
<path d="M204.809 83.0977C204.356 85.5636 179.612 106.801 191.552 128.121C201.105 145.176 215.11 142.056 220.647 138.269C224.69 135.643 234.315 123.057 226.404 111.821C221.515 104.877 213.343 103.88 207.523 108.061" stroke="white" stroke-width="6"/>
<path d="M216.293 2.45534C206.963 9.50386 187.34 26.7882 183.484 39.5372C179.628 52.2863 185.723 68.2457 196.003 75.8712C206.284 83.4967 231.527 89.6183 244.652 68.9915C253.794 54.624 249.317 39.3175 240.729 31.871C226.605 19.6246 210.628 30.3598 206.715 36.2914C202.801 42.2231 200.014 55.1355 208.702 62.4273" stroke="white" stroke-width="6"/>
<path d="M207.562 185.847C201.633 187.719 187.909 190.901 180.437 188.655C172.965 186.409 144.925 177.169 150.626 157.899C155.232 142.33 146.276 131.482 138.727 126.505C131.178 121.528 120.457 124.259 118 132.12" stroke="white" stroke-width="6"/>
<path d="M305.553 195.264C306.748 189.788 306.145 176.711 294.176 168.218C282.207 159.724 274.373 164.252 271.952 167.578C269.961 170.417 267.412 177.405 273.138 182.644C280.295 189.193 289.212 180.416 284.178 174.801" stroke="white" stroke-width="6"/>
<path d="M370.219 143.345C365.759 147.959 354.861 157.573 346.949 159.119C339.036 160.664 308.939 165.712 304.536 145.076C300.979 128.404 287.437 122.695 278.096 121.745C268.754 120.796 260.363 128.534 262.04 137.016" stroke="white" stroke-width="6"/>
</svg>
