<svg width="352" height="185" viewBox="0 0 352 185" fill="none" xmlns="http://www.w3.org/2000/svg">
<path d="M59.9 137.635C45.1653 128.397 -9.67358 87.5982 4.24114 87.5982C15.5051 87.5982 37.1971 107.372 61.3647 83.3081C70.1581 81.2029 86.4306 96.6519 97.9824 90.1505C110.692 82.9974 107.032 64 102.5 48C94.4441 19.5604 148.751 21.2183 148.515 32.9918C148.222 47.5763 186.719 42.2286 195.019 40.6487C243.721 28.2519 215.891 1.99998 259.833 2C327.329 2.00002 310.035 51.7924 307.069 57.0561C298.647 72.0051 277.775 82.9435 286.197 77.1097C295.046 70.9803 291.69 55.9623 282.902 51.9516C262.762 47.9409 261.663 58.5146 266.79 79.662C276.016 117.72 302.675 89.871 309.266 84.7665C311.868 82.7519 364.925 51.2224 345.884 114.665C326.843 178.107 292.788 159.512 272.283 166.075C251.777 172.638 244.819 130.343 238.228 156.959C231.637 183.576 198.721 189.115 193.188 176.648C186.231 160.97 195.385 160.605 177.443 137.635C163.089 119.259 134.356 129.978 121.784 137.635C105.428 149.789 79.6735 150.032 59.9 137.635Z" fill="#FB4D61" stroke="#FB4D61" stroke-width="3"/>
<path d="M348.219 126.345C343.759 130.959 332.861 140.573 324.949 142.119C317.036 143.664 286.939 148.712 282.536 128.076C278.979 111.404 265.437 105.695 256.096 104.745C246.754 103.796 238.363 111.534 240.04 120.016" stroke="white" stroke-width="6"/>
<path d="M119.95 144C109.348 125.501 100.756 82.876 139.691 79.2543C158.334 77.5201 166.821 84.9009 169.675 93.9284C173.513 106.068 169.127 123.411 155.044 125.501C149.195 125.501 137.936 122.611 139.691 111.049C141.445 99.4873 150.292 99.68 154.496 101.222C159.431 104.112 157.567 110.933 150.109 110.471" stroke="white" stroke-width="5"/>
<path d="M251.553 104.264C252.748 98.7878 252.145 85.7113 240.176 77.2177C228.207 68.7241 220.373 73.2522 217.952 76.578C215.961 79.4169 213.412 86.4046 219.138 91.6437C226.295 98.1926 235.212 89.4156 230.178 83.8012" stroke="white" stroke-width="6"/>
</svg>
